<svg width="16" height="16" viewBox="0 0 16 16" fill="none" xmlns="http://www.w3.org/2000/svg">
<path d="M6.13706 2.48948C6.77349 2.46674 7.38823 2.19537 7.89493 1.71348L7.88746 1.72015C8.44915 1.21749 9.11802 0.935699 9.80853 0.910815H9.81386C10.1657 0.862361 10.5217 0.891241 10.8656 0.996148L10.8448 0.990815C11.1058 1.08415 11.2469 1.22415 11.2683 1.41082C11.3003 1.58593 11.2256 1.72904 11.0443 1.84015C10.835 1.96327 10.6086 2.03437 10.3776 2.04948H10.3728C10.1055 2.12041 9.82687 2.07673 9.58186 1.92548L9.5888 1.92948C9.52099 1.8882 9.46063 1.83008 9.41139 1.75867C9.36215 1.68726 9.32506 1.60406 9.30239 1.51415L9.30133 1.50948C9.03466 1.53615 8.86684 1.60948 8.79786 1.72948C8.73454 1.82487 8.7032 1.94719 8.7104 2.07082V2.06948C8.7424 2.25615 8.91306 2.42282 9.22239 2.56948C9.48053 2.67081 9.77706 2.72948 10.0843 2.72948C10.2368 2.72948 10.3872 2.71481 10.5333 2.68748L10.5168 2.69015H10.5339C11.008 2.69015 11.4485 2.50681 11.8117 2.19482L11.8043 2.20082C11.9089 2.09944 11.9899 1.96495 12.0389 1.81128C12.088 1.65762 12.1033 1.49035 12.0832 1.32681L12.0837 1.33215C12.0197 0.932148 11.7508 0.595926 11.2768 0.323482C10.6293 0.0225931 9.93144 -0.0691286 9.248 0.0568149L9.2704 0.0534816C8.16213 0.185037 7.45599 0.478148 7.15199 0.932815C6.73316 1.44633 6.1696 1.73343 5.58293 1.73215H5.55999H5.56106C5.31923 1.77876 5.07213 1.75712 4.83786 1.66882L4.8496 1.67282C4.77805 1.65081 4.71207 1.60668 4.65774 1.54447C4.60341 1.48226 4.56246 1.40398 4.53866 1.31681L4.53759 1.31281C4.53222 1.24289 4.5456 1.17272 4.57563 1.11334C4.60566 1.05396 4.65063 1.00875 4.70346 0.984815L4.70506 0.984148C4.83786 0.908148 4.99253 0.854815 5.15466 0.834815L5.16053 0.834148C5.33323 0.820533 5.50661 0.831492 5.67733 0.866815L5.66399 0.864815C5.81546 0.888815 5.95359 0.934815 6.08266 1.00148L6.07146 0.996815C6.13015 0.970399 6.18235 0.925372 6.22293 0.866148L6.22346 0.865482C6.23665 0.844359 6.24569 0.819665 6.24986 0.793383C6.25403 0.7671 6.25321 0.739962 6.24746 0.714148V0.715482C6.21546 0.568815 6.09831 0.465482 5.89599 0.405482C5.65086 0.340517 5.39908 0.324095 5.14986 0.356815L5.15999 0.355482C4.60568 0.422148 4.28319 0.575482 4.19253 0.815482C4.11086 0.991785 4.07438 1.19514 4.08799 1.39815V1.39481C4.13477 1.59809 4.22037 1.7841 4.33744 1.93682C4.45451 2.08954 4.59952 2.20439 4.75999 2.27148L4.76746 2.27415C5.06666 2.43015 5.41386 2.52081 5.77866 2.52081C5.90399 2.52081 6.02719 2.51015 6.14773 2.48948L6.13386 2.49148L6.13706 2.48948ZM13.6357 5.64815C13.2944 5.75437 12.9266 5.8477 12.5323 5.92815C12.138 6.00859 11.7223 6.07437 11.2853 6.12548C10.8484 6.17881 10.3847 6.22259 9.8944 6.25681C9.40408 6.29104 8.89777 6.3077 8.37546 6.30682C7.83182 6.30682 7.31484 6.29015 6.82453 6.25681C6.33422 6.22348 5.86791 6.17682 5.42559 6.11682C4.98328 6.05682 4.56497 5.98704 4.17066 5.90748C3.77635 5.82793 3.40853 5.74037 3.06719 5.64481C2.55618 5.49617 2.05892 5.28146 1.58346 5.00415L1.62986 5.02882C1.36145 4.88674 1.12595 4.66253 0.945061 4.37681L0.942395 4.37215C1.00373 4.95015 1.08479 5.45415 1.18986 5.94682L1.17439 5.86148C1.29706 6.45148 1.42026 6.92815 1.56159 7.39348L1.53439 7.29148C1.37136 7.41431 1.21781 7.55581 1.07573 7.71415L1.07839 7.71081C0.932729 7.87356 0.79805 8.05106 0.675728 8.24148L0.670395 8.25015C0.439097 8.60732 0.262947 9.01514 0.150928 9.45282L0.145061 9.47948C0.0379364 9.90414 -0.010755 10.3485 0.00106117 10.7935V10.7875C0.0197278 11.2315 0.121061 11.6415 0.286395 11.9995L0.281061 11.9861C0.45136 12.35 0.673512 12.6717 0.936528 12.9355L0.941861 12.9408C1.19884 13.2012 1.49857 13.3876 1.81973 13.4868L1.83519 13.4908C2.16698 13.5786 2.50961 13.5809 2.84213 13.4975L2.82613 13.5008C2.98506 13.4688 3.12746 13.4161 3.26186 13.3455L3.24959 13.3515C3.39359 13.2781 3.53475 13.2148 3.67306 13.1615H3.65599C3.38064 13.1619 3.10759 13.0986 2.85066 12.9748L2.86613 12.9815C2.59596 12.8478 2.34338 12.6642 2.11679 12.4368L2.12213 12.4421C1.87154 12.2075 1.65476 11.9211 1.48106 11.5955L1.47466 11.5828C1.29903 11.2513 1.18713 10.8734 1.14773 10.4788L1.14666 10.4661C1.08183 10.0948 1.08274 9.7103 1.14933 9.33948L1.14666 9.35682C1.21383 8.99225 1.33483 8.64655 1.50346 8.33748L1.49813 8.34748C1.54079 8.29415 1.58079 8.24104 1.61813 8.18815C1.65546 8.13526 1.69546 8.08215 1.73813 8.02882C1.83413 8.33548 1.93795 8.63526 2.04959 8.92815C2.16124 9.22104 2.28213 9.5077 2.41226 9.78815C2.66791 10.281 2.92906 10.7573 3.19573 11.2168C3.46239 11.6764 3.72871 12.1386 3.99466 12.6035C4.09493 12.8341 4.19466 13.1108 4.27893 13.3975L4.29066 13.4428C4.35839 13.6675 4.42186 13.9421 4.46933 14.2241L4.47466 14.2621C4.65439 14.5661 4.86559 14.8248 5.10559 15.0361L5.11413 15.0435C5.35306 15.2515 5.62879 15.4215 5.92426 15.5361L5.94559 15.5435C6.27253 15.6895 6.66026 15.8115 7.06026 15.8875L7.09599 15.8928C7.45439 15.9628 7.86773 16.0028 8.28853 16.0028H8.37493C8.80274 16.0023 9.22985 15.9595 9.65226 15.8748L9.60586 15.8821C10.0309 15.8024 10.4494 15.6757 10.8565 15.5035L10.8053 15.5222C11.0903 15.4051 11.3602 15.2373 11.6069 15.0241L11.5963 15.0328C11.8391 14.8207 12.0506 14.5574 12.2213 14.2548L12.2267 14.2448H12.2747C12.3173 14.0048 12.3732 13.7384 12.4421 13.4455C12.5216 13.1148 12.6165 12.8301 12.7317 12.5608L12.7216 12.5861C12.9772 12.1199 13.2384 11.6601 13.5051 11.2068C13.7717 10.7535 14.0382 10.2739 14.3045 9.76815C14.6513 8.986 14.9398 8.16566 15.1664 7.31748L15.1915 7.21015C15.4286 6.33045 15.6133 5.42998 15.744 4.51615L15.7589 4.39215C15.567 4.68311 15.3253 4.9166 15.0517 5.07548L15.0395 5.08215C14.6044 5.34168 14.1445 5.53012 13.6709 5.64281L13.6347 5.65015L13.6357 5.64815ZM3.06773 4.26815C3.40906 4.37437 3.77688 4.4677 4.17119 4.54815C4.56551 4.62859 4.98115 4.69437 5.41813 4.74548C5.85511 4.79881 6.31608 4.83881 6.80106 4.86548C7.28604 4.89215 7.79395 4.90548 8.32479 4.90548C8.86844 4.90548 9.38275 4.89215 9.86773 4.86548C10.3527 4.83881 10.8137 4.79881 11.2507 4.74548C11.6876 4.69215 12.1006 4.62237 12.4896 4.53615C12.8786 4.44993 13.2489 4.35993 13.6005 4.26615C14.1784 4.11169 14.736 3.85582 15.2565 3.50615L15.2235 3.52681C15.5804 3.26059 15.7589 2.99415 15.7589 2.72748C15.7547 2.61776 15.732 2.51038 15.6923 2.41239C15.6526 2.31439 15.5968 2.22798 15.5285 2.15881L15.5275 2.15748C15.3354 1.95042 15.116 1.78685 14.8789 1.67415L14.864 1.66815C14.928 1.72348 14.9808 1.79348 15.0203 1.87481L15.0219 1.87748C15.0633 1.95805 15.0855 2.05171 15.0859 2.14748C15.0859 2.42748 14.9207 2.68059 14.5904 2.90682C14.1616 3.17481 13.664 3.38881 13.1419 3.51815L13.104 3.52615C12.4857 3.68615 11.7822 3.82281 10.9936 3.93615C10.2416 4.04481 9.37013 4.10681 8.48693 4.10681L8.36586 4.10615H8.37226H8.28533C7.40106 4.10615 6.52746 4.04815 5.66719 3.93481L5.77439 3.94615C5.0234 3.85485 4.27702 3.71174 3.53866 3.51748L3.67199 3.54681C3.15465 3.40525 2.65351 3.1833 2.18026 2.88615L2.21653 2.90682C1.88622 2.68059 1.72106 2.43415 1.72106 2.16748V2.16682C1.72106 2.04215 1.74773 1.92548 1.79466 1.82482L1.79306 1.82815C1.86079 1.69748 1.94879 1.59015 2.05226 1.51082L2.05599 1.50815C1.72706 1.65835 1.41258 1.85401 1.11839 2.09148L1.13706 2.07748C0.955195 2.21081 0.833061 2.45015 0.825595 2.72615V2.72748C0.846928 3.00748 1.04142 3.28059 1.40906 3.54681C1.88746 3.86282 2.44159 4.11281 3.02559 4.26081L3.06559 4.26948L3.06773 4.26815Z" fill="white"/>
</svg>
