<svg width="24" height="24" viewBox="0 0 24 24" fill="none" xmlns="http://www.w3.org/2000/svg">
<path d="M21.0299 15H8.8155L9.08821 16.5H20.2723C20.914 16.5 21.3896 17.1704 21.2474 17.8743L21.0175 19.0123C21.7963 19.4376 22.3333 20.3357 22.3333 21.375C22.3333 22.8376 21.27 24.0208 19.9657 23.9997C18.723 23.9796 17.7011 22.8451 17.6675 21.4475C17.6492 20.6841 17.9211 19.9921 18.3677 19.4999H9.63234C10.0647 19.9765 10.3333 20.6403 10.3333 21.375C10.3333 22.8662 9.228 24.0671 7.88875 23.9971C6.69958 23.935 5.73246 22.854 5.66996 21.5166C5.62171 20.4838 6.10479 19.5734 6.83875 19.0985L3.91179 3H1C0.447708 3 0 2.49633 0 1.875V1.125C0 0.503672 0.447708 0 1 0H5.27204C5.74708 0 6.15654 0.375984 6.25175 0.899531L6.63367 3H22.9996C23.6413 3 24.1169 3.67036 23.9747 4.37433L22.005 14.1243C21.9015 14.6365 21.4968 15 21.0299 15ZM17 7.875H15V6C15 5.58576 14.7015 5.25 14.3333 5.25H13.6667C13.2985 5.25 13 5.58576 13 6V7.875H11C10.6318 7.875 10.3333 8.21076 10.3333 8.625V9.375C10.3333 9.78923 10.6318 10.125 11 10.125H13V12C13 12.4142 13.2985 12.75 13.6667 12.75H14.3333C14.7015 12.75 15 12.4142 15 12V10.125H17C17.3682 10.125 17.6667 9.78923 17.6667 9.375V8.625C17.6667 8.21076 17.3682 7.875 17 7.875Z" fill="black"/>
</svg>
