<svg width="20" height="20" viewBox="0 0 20 20" fill="none" xmlns="http://www.w3.org/2000/svg">
<path d="M4.6875 1.25H7.1875V3.75H4.6875V1.25Z" fill="#B37B47"/>
<path d="M4.6875 1.25L4.0625 0.625V4.375L4.6875 3.75V1.25Z" fill="#A16745"/>
<path d="M7.1875 3.75L7.8125 4.375V0.625L7.1875 1.25V3.75Z" fill="#633F2C"/>
<path d="M7.1875 1.25L7.8125 0.625H4.0625L4.6875 1.25H7.1875Z" fill="#8C5B3E"/>
<path d="M7.1875 3.75H4.6875L4.0625 4.375H7.8125L7.1875 3.75Z" fill="#523420"/>
<path d="M8.4375 1.25H10.9375V3.75H8.4375V1.25Z" fill="#B37B47"/>
<path d="M8.4375 3.75V1.25L7.8125 0.625V4.375L8.4375 3.75Z" fill="#A16745"/>
<path d="M11.5625 4.375V2.03125C11.1875 1.71875 10.9375 1.25 10.9375 1.25V3.75L11.5625 4.375Z" fill="#633F2C"/>
<path d="M10.9375 1.25C10.9375 1.25 10.9062 0.875 11.0312 0.625H7.8125L8.4375 1.25H10.9375Z" fill="#8C5B3E"/>
<path d="M10.9375 3.75H8.4375L7.8125 4.375H11.5625L10.9375 3.75Z" fill="#523420"/>
<path d="M12.1875 2.28125V3.75H12.5937C12.1875 3.125 12.1875 2.28125 12.1875 2.28125Z" fill="#B37B47"/>
<path d="M12.1875 2.28125C12 2.21875 11.7188 2.15625 11.5625 2.03125V4.375L12.1875 3.75V2.28125Z" fill="#A16745"/>
<path d="M11.5625 4.375H13.8125C13.8125 4.375 12.9688 4.1875 12.5625 3.75H12.1875L11.5625 4.375Z" fill="#523420"/>
<path d="M4.6875 5H7.1875V7.5H4.6875V5Z" fill="#B37B47"/>
<path d="M4.6875 5L4.0625 4.375V8.125L4.6875 7.5V5Z" fill="#A16745"/>
<path d="M7.1875 5V7.5L7.8125 8.125V4.375L7.1875 5Z" fill="#633F2C"/>
<path d="M7.1875 5L7.8125 4.375H4.0625L4.6875 5H7.1875Z" fill="#8C5B3E"/>
<path d="M7.1875 7.5H4.6875L4.0625 8.125H7.8125L7.1875 7.5Z" fill="#523420"/>
<path d="M8.4375 5H10.9375V7.5H8.4375V5Z" fill="#B37B47"/>
<path d="M8.4375 5L7.8125 4.375V8.125L8.4375 7.5V5Z" fill="#A16745"/>
<path d="M10.9375 5V7.5L11.5625 8.125V4.375L10.9375 5Z" fill="#633F2C"/>
<path d="M10.9375 5L11.5625 4.375H7.8125L8.4375 5H10.9375Z" fill="#8C5B3E"/>
<path d="M8.4375 7.5L7.8125 8.125H11.5625L10.9375 7.5H8.4375Z" fill="#523420"/>
<path d="M14 5H12.1875V7.5H14.6875V5.34375C14.4062 5.25 14.1562 5.25 14 5Z" fill="#B37B47"/>
<path d="M11.5625 4.375V8.125L12.1875 7.5V5L11.5625 4.375Z" fill="#A16745"/>
<path d="M14.6875 5.34375V7.5L15.3125 8.125V5.40625C15.125 5.40625 14.8438 5.40625 14.6875 5.34375Z" fill="#633F2C"/>
<path d="M12.1875 5H14C13.875 4.84375 13.8438 4.625 13.8125 4.375H11.5625L12.1875 5Z" fill="#8C5B3E"/>
<path d="M12.1875 7.5L11.5625 8.125H15.3125L14.6875 7.5H12.1875Z" fill="#523420"/>
<path d="M4.6875 8.75H7.1875V11.25H4.6875V8.75Z" fill="#B37B47"/>
<path d="M4.6875 8.75L4.0625 8.125V11.6875L4.6875 11.25V8.75Z" fill="#A16745"/>
<path d="M7.1875 8.75V11.25H7.8125V8.125L7.1875 8.75Z" fill="#633F2C"/>
<path d="M7.1875 8.75L7.8125 8.125H4.0625L4.6875 8.75H7.1875ZM7.1875 11.25H4.6875L4.0625 11.6875L7.1875 11.25Z" fill="#8C5B3E"/>
<path d="M8.4375 8.75H10.9375V11.25H8.4375V8.75Z" fill="#B37B47"/>
<path d="M8.4375 8.75L7.8125 8.125V11.25H8.4375V8.75Z" fill="#A16745"/>
<path d="M10.9375 11.25H11.5625V8.125L10.9375 8.75V11.25Z" fill="#633F2C"/>
<path d="M8.4375 8.75H10.9375L11.5625 8.125H7.8125L8.4375 8.75Z" fill="#8C5B3E"/>
<path d="M12.1875 8.75H14.6875V11.25H12.1875V8.75Z" fill="#B37B47"/>
<path d="M12.1875 11.25V8.75L11.5625 8.125V11.25H12.1875Z" fill="#A16745"/>
<path d="M14.6875 11.25H15.3125V8.125L14.6875 8.75V11.25Z" fill="#633F2C"/>
<path d="M12.1875 8.75H14.6875L15.3125 8.125H11.5625L12.1875 8.75Z" fill="#8C5B3E"/>
<path d="M4.0625 11.5H15.3125V18.75H4.0625V11.5Z" fill="#9E6EEB"/>
<path d="M14.1875 10.9062L4.0625 11.5C10.8125 11.5 8.9375 17.8437 13.9688 17.8437C12.5312 16 14.1875 10.9062 14.1875 10.9062Z" fill="#7350AB"/>
<path d="M15.3125 10.1251C13.0938 8.37512 4.0625 11.5001 4.0625 11.5001C11.8438 10.9064 9.5625 17.4064 14.9688 16.8126C13.6563 13.7501 17.3438 11.6876 15.3125 10.1251ZM4.0625 18.7501H15.3125V19.3751H4.0625V18.7501Z" fill="#F8D317"/>
</svg>
