<svg width="20" height="20" viewBox="0 0 20 20" fill="none" xmlns="http://www.w3.org/2000/svg">
<path d="M10 17.7782C12.9148 17.7782 15.2778 14.296 15.2778 10.0004C15.2778 5.70489 12.9148 2.22266 10 2.22266C7.08517 2.22266 4.72223 5.70489 4.72223 10.0004C4.72223 14.296 7.08517 17.7782 10 17.7782Z" fill="#A57939"/>
<path fill-rule="evenodd" clip-rule="evenodd" d="M10 17.7772C9.99583 17.7772 9.99472 17.7711 9.99889 17.77C12.3503 16.9828 14.1089 13.8089 14.1089 10.0136C14.1089 6.21612 12.3481 3.04085 9.995 2.25585C9.97555 2.24974 9.97972 2.22168 10 2.22168C12.9147 2.22168 15.2778 5.7039 15.2778 9.99946C15.2778 14.295 12.9147 17.7772 10 17.7772Z" fill="#6A462F"/>
<path d="M9.99889 17.7704L10.0869 18.0338L9.99889 17.7704ZM13.8311 10.0138C13.8311 11.8702 13.4006 13.5666 12.6908 14.8888C11.9797 16.2135 10.9997 17.1421 9.91056 17.5066L10.0869 18.0335C11.3492 17.6107 12.4244 16.5591 13.1803 15.1513C13.9378 13.7407 14.3867 11.9527 14.3867 10.0138H13.8311ZM9.90695 2.51934C10.9969 2.88322 11.9775 3.81156 12.6897 5.13656C13.4003 6.45878 13.8311 8.156 13.8311 10.0138H14.3867C14.3867 8.07378 13.9372 6.28461 13.1792 4.87378C12.4225 3.46545 11.3461 2.41406 10.0828 1.99267L9.90695 2.51961V2.51934ZM10 2.49989C11.3381 2.49989 12.5811 3.29906 13.5022 4.656C14.4219 6.01184 15 7.90045 15 9.99989H15.5556C15.5556 7.80406 14.9519 5.8035 13.9619 4.34434C12.9722 2.88628 11.5769 1.94434 10 1.94434V2.49989ZM15 9.99989C15 12.0996 14.4222 13.9879 13.5022 15.3435C12.5811 16.7007 11.3381 17.4999 10 17.4999V18.0554C11.5769 18.0554 12.9725 17.1132 13.9619 15.6554C14.9519 14.1966 15.5556 12.1963 15.5556 9.99989H15ZM10.0828 1.99295C10.1409 2.01294 10.1901 2.05286 10.2217 2.10563C10.2532 2.15841 10.2651 2.22065 10.2552 2.28133C10.2453 2.34202 10.2142 2.39725 10.1675 2.43724C10.1208 2.47724 10.0615 2.49943 10 2.49989V1.94434C9.9293 1.94424 9.86093 1.96959 9.80738 2.01575C9.75383 2.0619 9.71867 2.12579 9.70833 2.19573C9.69 2.31684 9.75111 2.46795 9.90695 2.51989L10.0828 1.99295ZM9.91056 17.5068C9.59806 17.6116 9.69111 18.0554 10 18.0554V17.4999C10.3 17.4999 10.3914 17.9318 10.0869 18.0338L9.91056 17.5068Z" fill="#6A462F"/>
<path fill-rule="evenodd" clip-rule="evenodd" d="M9.99999 16.9446C9.99999 16.9446 8.33333 13.8354 8.33333 10.0001C8.33333 6.17789 9.98888 3.07678 9.99999 3.05566C9.99194 3.07066 9.16666 4.61955 9.16666 6.52789C9.16666 8.44539 9.99999 10.0001 9.99999 10.0001C9.99999 10.0001 10.8333 11.5546 10.8333 13.4723C10.8333 15.3898 9.99999 16.9446 9.99999 16.9446Z" fill="#6A462F"/>
<path d="M10 16.9442L9.75528 17.0753C9.77903 17.1195 9.81434 17.1565 9.85743 17.1823C9.90052 17.208 9.94979 17.2216 10 17.2216C10.0502 17.2216 10.0995 17.208 10.1426 17.1823C10.1857 17.1565 10.221 17.1195 10.2447 17.0753L10 16.9442ZM10 3.05529L10.245 3.18613C10.2797 3.12115 10.2872 3.04503 10.2659 2.97452C10.2445 2.90402 10.196 2.84489 10.131 2.81015C10.066 2.77542 9.98988 2.76792 9.91937 2.7893C9.84886 2.81069 9.78974 2.8592 9.755 2.92418L10 3.05529ZM10 9.99974L10.2447 9.86835L10 9.99974ZM8.05556 9.99974C8.05556 11.9558 8.48028 13.7225 8.90278 14.9975C9.07243 15.5113 9.26701 16.0165 9.48583 16.5114C9.56437 16.6881 9.64727 16.8627 9.73445 17.0353L9.74945 17.0642L9.75333 17.072L9.75472 17.0742V17.075H9.755L10 16.9442C10.2447 16.8128 10.245 16.8128 10.245 16.8131V16.8128L10.2442 16.8117L10.2411 16.8058L10.2283 16.7808C10.2111 16.7475 10.1941 16.714 10.1775 16.6803C10.1136 16.5499 10.0522 16.4183 9.99334 16.2856C9.78204 15.8074 9.59413 15.3192 9.43028 14.8228C9.01972 13.5842 8.61111 11.8786 8.61111 9.99974H8.05556ZM9.755 2.92418C9.73722 2.95752 8.05556 6.10752 8.05556 9.99974H8.61111C8.61111 6.24696 10.24 3.19557 10.245 3.1864L9.755 2.92418ZM9.44445 6.52752C9.44445 5.61168 9.64278 4.77779 9.84417 4.16835C10.045 3.56002 10.2461 3.1839 10.245 3.18613L9.755 2.92446C9.74056 2.95113 8.88889 4.54946 8.88889 6.52724H9.44445V6.52752ZM10 9.99974C10.2447 9.86835 10.245 9.86835 10.245 9.86863V9.86835L10.2436 9.86585C10.2332 9.8462 10.2231 9.82638 10.2133 9.8064C10.1919 9.76307 10.1611 9.69807 10.1236 9.6139C10.0198 9.379 9.92746 9.13918 9.84695 8.89529C9.64472 8.28502 9.44445 7.44752 9.44445 6.52752H8.88889C8.88889 7.52474 9.10528 8.42335 9.31945 9.07002C9.40578 9.33116 9.50478 9.58795 9.61611 9.83946C9.65647 9.93032 9.69907 10.0202 9.74389 10.1089L9.75167 10.1245C9.75278 10.1261 9.75334 10.1278 9.75417 10.1286L9.75472 10.13L9.755 10.1306L10 9.99974ZM10 9.99974L9.755 10.1308L9.75639 10.1336C9.76681 10.1533 9.7769 10.1731 9.78667 10.1931C9.80806 10.2361 9.83889 10.3011 9.87639 10.3853C9.95139 10.5542 10.0522 10.7997 10.1531 11.1039C10.3553 11.7142 10.5556 12.552 10.5556 13.472H11.1111C11.1111 12.4745 10.8947 11.5758 10.6806 10.9292C10.5942 10.668 10.4952 10.4113 10.3839 10.1597C10.3412 10.0637 10.296 9.96872 10.2483 9.87502L10.2458 9.87057L10.2453 9.86918L10.245 9.86863L10 9.99974ZM10.5556 13.472C10.5556 14.392 10.3553 15.2295 10.1528 15.8397C10.0724 16.0836 9.98012 16.3234 9.87639 16.5583C9.83855 16.6433 9.79853 16.7273 9.75639 16.8103L9.75528 16.8128L10 16.9442L10.245 17.0753V17.0745C10.2456 17.0742 10.2456 17.0736 10.2458 17.0731C10.2467 17.0722 10.2472 17.0706 10.2483 17.0689L10.2564 17.0533C10.2631 17.04 10.2731 17.0208 10.285 16.9964C10.3092 16.947 10.3433 16.8756 10.3839 16.7842C10.4951 16.5327 10.594 16.2759 10.6803 16.0147C10.8947 15.3675 11.1111 14.4692 11.1111 13.472H10.5556Z" fill="#6A462F"/>
<path d="M10 17.7782C12.9148 17.7782 15.2778 14.296 15.2778 10.0004C15.2778 5.70489 12.9148 2.22266 10 2.22266C7.08517 2.22266 4.72223 5.70489 4.72223 10.0004C4.72223 14.296 7.08517 17.7782 10 17.7782Z" stroke="black" stroke-width="2"/>
<path d="M10 10.0001C10 10.0001 10.8333 11.5546 10.8333 13.4723C10.8333 15.3901 10 16.9446 10 16.9446M10 10.0001C10 10.0001 9.16667 8.44566 9.16667 6.52789C9.16667 4.61011 10 3.05566 10 3.05566V10.0001Z" stroke="black" stroke-width="2" stroke-linecap="round" stroke-linejoin="round"/>
</svg>
