<svg width="16" height="16" viewBox="0 0 16 16" fill="none" xmlns="http://www.w3.org/2000/svg">
<path d="M1.10541 6.80369V10.8501C1.1053 11.3814 1.20987 11.9076 1.41313 12.3985C1.6164 12.8894 1.91438 13.3355 2.29005 13.7113C2.66573 14.087 3.11175 14.3851 3.60264 14.5885C4.09353 14.7918 4.61967 14.8965 5.15101 14.8965H8.09261C8.62395 14.8965 9.15009 14.7918 9.64098 14.5885C10.1319 14.3851 10.5779 14.087 10.9536 13.7113C11.3292 13.3355 11.6272 12.8894 11.8305 12.3985C12.0337 11.9076 12.1383 11.3814 12.1382 10.8501V6.80449L1.10541 6.80369ZM9.50941 0.127688C9.62165 0.221681 9.69195 0.356411 9.70485 0.502239C9.71776 0.648067 9.6722 0.793048 9.57821 0.905288C9.06461 1.51729 8.95101 1.93489 9.10941 2.21489C9.15901 2.30209 9.58381 2.97329 9.68141 3.18049C9.90221 3.64849 9.93101 4.10209 9.74061 4.63809C9.60057 5.02306 9.39754 5.38208 9.13981 5.70049H12.2446C12.5942 5.71329 12.8478 5.80209 13.0046 5.96849C13.0926 6.05969 13.155 6.17489 13.1942 6.31409L13.2422 6.31249C13.9739 6.31249 14.6756 6.60315 15.193 7.12052C15.7103 7.6379 16.001 8.33961 16.001 9.07129C16.001 9.80297 15.7103 10.5047 15.193 11.0221C14.6756 11.5394 13.9739 11.8301 13.2422 11.8301L13.1494 11.8269C12.9224 13.0013 12.2936 14.0601 11.371 14.8216C10.4484 15.583 9.28961 15.9995 8.09341 15.9997H5.15021C4.47399 15.9997 3.8044 15.8665 3.17966 15.6077C2.55493 15.3489 1.98729 14.9696 1.50917 14.4914C1.03105 14.0132 0.651812 13.4455 0.393108 12.8207C0.134403 12.1959 0.00130334 11.5263 0.00140841 10.8501V6.66929C-0.0145916 6.32289 0.0510084 6.07729 0.196608 5.93329C0.343008 5.78929 0.559008 5.71169 0.843808 5.70129H3.20621C3.23698 5.65001 3.27588 5.60407 3.32141 5.56529C3.80941 5.15169 4.12781 4.71969 4.28781 4.26929C4.37901 4.01329 4.36861 3.86129 4.27021 3.65249C4.20781 3.51969 3.81501 2.89889 3.73661 2.75969C3.30541 1.99809 3.54301 1.12449 4.31901 0.198088C4.36464 0.139768 4.42155 0.0912256 4.48633 0.055352C4.55111 0.0194784 4.62245 -0.00299337 4.6961 -0.0107255C4.76975 -0.0184577 4.8442 -0.0112921 4.91502 0.0103447C4.98584 0.0319814 5.05159 0.0676469 5.10834 0.115218C5.16509 0.162789 5.21169 0.221292 5.24536 0.287246C5.27904 0.353199 5.2991 0.425254 5.30435 0.499121C5.3096 0.572987 5.29993 0.647155 5.27593 0.717208C5.25192 0.787261 5.21406 0.851768 5.16461 0.906888C4.65101 1.51889 4.53821 1.93649 4.69661 2.21649C4.74541 2.30369 5.17101 2.97489 5.26861 3.18209C5.48861 3.65009 5.51821 4.10369 5.32701 4.63969C5.18722 5.0246 4.98446 5.38362 4.72701 5.70209H5.41341C5.44418 5.6508 5.48308 5.60487 5.52861 5.56609C6.01581 5.15169 6.33421 4.71969 6.49421 4.26929C6.58541 4.01329 6.57581 3.86129 6.47661 3.65249C6.41421 3.51969 6.02141 2.89889 5.94301 2.75969C5.51181 1.99809 5.74941 1.12449 6.52621 0.198088C6.57145 0.138661 6.62829 0.0890345 6.69327 0.0522124C6.75825 0.0153903 6.83003 -0.00786119 6.90426 -0.0161344C6.97849 -0.0244076 7.05363 -0.0175304 7.12512 0.00408081C7.19662 0.025692 7.26298 0.0615877 7.3202 0.109595C7.37742 0.157602 7.4243 0.216721 7.45801 0.283374C7.49171 0.350027 7.51154 0.422826 7.51629 0.497365C7.52104 0.571904 7.51061 0.646631 7.48564 0.717023C7.46067 0.787415 7.42167 0.852006 7.37101 0.906888C6.85821 1.51889 6.74461 1.93649 6.90301 2.21649C6.95261 2.30369 7.37741 2.97489 7.47501 3.18209C7.69581 3.65009 7.72461 4.10369 7.53341 4.63969C7.39362 5.0246 7.19086 5.38362 6.93341 5.70209H7.62061C7.65113 5.65087 7.68977 5.60494 7.73501 5.56609C8.22301 5.15169 8.54061 4.71969 8.70061 4.26929C8.79181 4.01329 8.78221 3.86129 8.68301 3.65249C8.62061 3.51969 8.22861 2.89889 8.14941 2.75969C7.71901 1.99809 7.95581 1.12449 8.73261 0.198088C8.82658 0.0860865 8.96115 0.0159402 9.10678 0.0030418C9.25241 -0.00985663 9.39721 0.0355465 9.50941 0.129288V0.127688ZM13.2414 7.41569V10.7261C13.6804 10.7261 14.1014 10.5517 14.4118 10.2413C14.7222 9.93088 14.8966 9.50987 14.8966 9.07089C14.8966 8.6319 14.7222 8.21089 14.4118 7.90048C14.1014 7.59007 13.6804 7.41569 13.2414 7.41569Z" fill="black"/>
</svg>
