<svg width="20" height="20" viewBox="0 0 20 20" fill="none" xmlns="http://www.w3.org/2000/svg">
<path d="M17.8125 8.1875C17.8125 8.1875 16.875 9.0625 15.2812 10.0938C14.8437 7.5625 13.625 4.4375 11.25 0.625C11.25 0.625 10.4687 4.71875 7.87499 8.5625C6.74999 6.8125 6.24999 5.4375 6.24999 5.4375C-1.87501 13.5938 4.87499 19.375 9.12499 19.375C14.5625 19.375 19.3437 16.75 17.8125 8.1875Z" fill="#FF9D33"/>
<path d="M14.5938 15.4375C15.0625 14.4063 15.4062 13.0625 15.4688 11.375C15.4688 11.375 14.8125 11.9375 13.6875 12.6562C13.375 10.9688 12.5312 8.90625 10.875 6.34375C10.875 6.34375 10.3438 9.0625 8.53125 11.6562C7.75 10.5 7.40625 9.5625 7.40625 9.5625C6.0625 11.6875 5.53125 13.375 5.5 14.7188C4.75 14.4375 4.28125 14.2188 4.28125 14.2188C5.5625 18.0312 8.21875 18.875 9.40625 18.875C11.5313 18.875 13.6875 18.25 15.8125 15.2188C15.8125 15.1875 15.3438 15.3125 14.5938 15.4375Z" fill="#FFCE31"/>
<path d="M6.84375 13.7188C6.84375 13.7188 7.71875 14.9062 8.375 14.625C8.375 14.625 9.625 12.6562 11.4375 11.5625C11.4375 11.5625 11.0625 14.5625 11.5 15.0937C12.0625 15.8125 13.5938 14.3125 13.5938 14.3125C13.5938 16.0937 11.6563 18.3125 9.90625 18.3125C8.21875 18.3125 5.78125 16.375 6.84375 13.7188Z" fill="#FFDF85"/>
<path d="M15.5625 5.65625C16.2188 4.71875 16.6563 3.71875 16.6563 3.71875C17.75 5.53125 17.0938 6.625 16.625 6.96875C15.9688 7.46875 14.8125 6.75 15.5625 5.65625ZM3.62501 5.34375C2.96876 4.25 2.90626 2.875 2.90626 2.875C1.34376 5.21875 1.93751 6.53125 2.46876 6.90625C3.15626 7.4375 4.34376 6.625 3.62501 5.34375ZM7.25001 2.90625C7.34376 2.15625 7.03126 1.40625 7.03126 1.40625C8.50001 2.375 8.50001 3.1875 8.31251 3.53125C8.03126 3.9375 7.15626 3.75 7.25001 2.90625Z" fill="#FF9D33"/>
</svg>
