<?xml version="1.0" encoding="iso-8859-1"?>
<!-- Generator: Adobe Illustrator 19.0.0, SVG Export Plug-In . SVG Version: 6.00 Build 0)  -->
<svg version="1.1" id="Layer_1" xmlns="http://www.w3.org/2000/svg" xmlns:xlink="http://www.w3.org/1999/xlink" x="0px" y="0px"
	 viewBox="0 0 501.551 501.551" style="enable-background:new 0 0 501.551 501.551;" xml:space="preserve">
<path style="fill:#F2F2F2;" d="M374.596,153.6L297.273,36.571h-94.041l-76.278,115.984c-2.09,3.135-3.135,6.269-3.135,10.449
	v317.649c0,11.494,9.404,20.898,20.898,20.898h212.114c11.494,0,20.898-9.404,20.898-20.898V163.004
	C376.686,159.869,375.641,156.735,374.596,153.6z"/>
<path style="fill:#FFD15C;" d="M206.367,0C191.739,0,179.2,12.539,179.2,27.167l0,0l0,0c0,10.449,9.404,19.853,19.853,19.853
	c7.314,0,13.584-4.18,16.718-9.404c4.18,5.224,10.449,9.404,17.763,9.404c7.314,0,13.584-4.18,16.718-9.404
	c3.135,5.224,9.404,9.404,16.718,9.404c7.314,0,13.584-4.18,16.718-9.404c4.18,5.224,10.449,9.404,17.763,9.404
	c10.449,0,19.853-8.359,19.853-19.853l0,0l0,0C321.306,12.539,308.767,0,294.139,0H206.367z"/>
<rect x="123.82" y="251.82" style="fill:#FF7058;" width="253.91" height="156.735"/>
<g>
	<path style="fill:#FFFFFF;" d="M146.808,360.49v-62.694h18.808l11.494,42.841l11.494-42.841h18.808v62.694h-11.494v-49.11
		l-12.539,49.11h-12.539l-12.539-49.11v49.11H146.808z"/>
	<path style="fill:#FFFFFF;" d="M218.906,360.49v-62.694h12.539v62.694H218.906z"/>
	<path style="fill:#FFFFFF;" d="M243.984,360.49v-61.649h12.539v51.2h31.347v10.449H243.984z"/>
	<path style="fill:#FFFFFF;" d="M297.273,360.49v-62.694h12.539v28.212l25.078-28.212h16.718l-22.988,25.078l25.078,37.616H336.98
		l-16.718-29.257l-10.449,10.449v18.808H297.273z"/>
</g>
<g>
</g>
<g>
</g>
<g>
</g>
<g>
</g>
<g>
</g>
<g>
</g>
<g>
</g>
<g>
</g>
<g>
</g>
<g>
</g>
<g>
</g>
<g>
</g>
<g>
</g>
<g>
</g>
<g>
</g>
</svg>
